<?xml version="1.0"?><svg width="392.848" height="309.052" xmlns="http://www.w3.org/2000/svg">
 <title>Class of 2012 Graduation Cap</title>
 <metadata id="metadata7">image/svg+xml</metadata>
 <g>
  <title>Layer 1</title>
  <g id="layer1">
   <g id="g15614">
    <path d="m4.52034,136.871002l191.837662,128.014984l193.949005,-136.370987c-37.85202,-0.481003 -181.615005,85.522003 -191.929001,115.158005c-7.070999,-29.294998 -155.563206,-106.06601 -193.857666,-106.802002z" stroke-miterlimit="4" stroke="black" fill-rule="evenodd" fill="#000000" id="path2973"/>
    <path d="m2.50003,114.373001l186.786973,-113.872971l205.060989,113.136971c-37.85199,0.482002 -192.72699,-62.288002 -203.040985,-91.923801c-7.071014,29.294502 -150.512508,91.923801 -188.806977,92.659801z" stroke-miterlimit="4" stroke="black" fill-rule="evenodd" fill="#000000" id="path3878"/>
    <path d="m88.986,192.854004c0,0 2.316101,18.723999 -6.7752,43.977997c-14.142197,25.252991 -6.060997,-9.091995 51.518204,30.303986c52.526993,32.325012 30.434998,26.049011 76.770996,41.416016c5.556,-0.505005 -37.417999,-28.852997 -58.007004,-47.45401c-22.429001,-20.263992 -35.936996,-21.740997 -55.129898,-23.255997c2.020302,-3.030991 9.509903,-19.141998 10.519905,-32.274002l-18.897003,-12.713989z" stroke-width="1px" stroke="black" fill-rule="evenodd" fill="#000000" id="path4807"/>
    <path d="m300.859009,190.597c0,0 -1.848022,16.115997 3.694977,40.806c-24.234985,24.689987 -61.393982,52.238998 -78.215988,74.405991c-3.388,-0.493988 14.240997,-35.352997 26.794006,-53.538986c13.675003,-19.811005 23.339981,-19.827011 35.041,-21.307999c-1.231018,-2.963013 2.05899,-17.985001 1.444,-30.824005l11.242004,-9.541z" stroke-width="0.772066px" stroke="black" fill-rule="evenodd" fill="#000000" id="path7464"/>
    <path d="m336.264008,219.384003c0,0 18.557007,-1.350006 21.428986,17.856995c3.005005,20.104004 -4.169006,9.356003 -6.071991,31.429016c-1.786011,20.713989 8.571991,36.784973 8.571991,36.784973c0,0 -32.078979,-6.872986 -19.643005,-41.427979c2.831024,-7.867004 3.21402,-6.429016 5.71402,-23.572006c-6.679993,-21.481003 -10.356995,-20.714005 -10,-21.070999z" stroke-width="1px" stroke="black" fill-rule="evenodd" fill="#000000" id="path7472"/>
    <path d="m331.95401,222.598007c0,0 -24.270996,-2.779007 -27.141998,16.428986c-3.006012,20.104019 4.167999,9.356003 6.070984,31.427994c1.786011,20.715027 -12.5,32.143005 -12.5,32.143005c0,0 36.007019,-2.22998 23.571014,-36.78598c-2.831024,-7.865997 -3.21402,-6.428009 -5.71402,-23.571014c6.680023,-21.481003 16.072021,-19.285995 15.71402,-19.64299z" stroke-width="1px" stroke="black" fill-rule="evenodd" fill="#000000" id="path8359"/>
    <path d="m197.886002,125.900002c-7.746994,-0.107002 -17.007004,1.247002 -22.854004,-5.088005c-4.570999,-4.436996 -4.884003,-13.387993 0.734009,-17.018997c6.854996,-3.131996 6.627991,5.483002 8.210999,9.599998c2.556,5.860001 9.979996,9.720001 16.026993,6.790001c4.5,-0.849998 3.772995,5.724998 -0.425995,4.585999c-0.645996,0.222 -1.266006,0.583 -1.692001,1.131004l0,0z" stroke-miterlimit="4" stroke-dashoffset="0" stroke="black" fill-rule="evenodd" fill="#000000" id="path8381"/>
    <path d="m206.621002,103.311996c-1.606995,-2.856995 1.429001,-5.713898 18.571991,-5.713898c17.142014,0 5.892014,-4.285698 16.428009,2.142799c10.535995,6.4291 2.321991,11.964104 25.713989,23.571098c23.393005,11.608002 48.393005,9.643005 67.858002,22.85701c19.46402,13.214996 9.821014,13.75 10,30c0.178009,16.25 -4.643005,40.179001 -9.28598,35c-4.643005,-5.178009 6.78598,-39.10701 -9.286011,-55.714005c-16.071014,-16.606995 -35.178009,-3.393005 -55,-10.714005c-19.820999,-7.320999 -14.286011,-9.64299 -24.285995,-18.570999c-10,-8.929001 -5.535004,-11.429001 -15.714005,-17.142998c-10.178009,-5.715004 -23.393005,-2.857002 -25,-5.715004l0,0l0,0z" stroke-width="1px" stroke="black" fill-rule="evenodd" fill="#000000" id="path8405"/>
   </g>
  </g>
  <text xml:space="preserve" y="159.1282" x="188.8498" transform="matrix(1.04698 0 0 1.15379 -2.18888 -28.1791)" text-anchor="middle" stroke-width="0" stroke="#000000" fill="#ffffff" font-size="27" font-family="Georgia" id="svg_1">Class</text>
  <text xml:space="preserve" y="175.9476" x="197.1521" text-anchor="middle" stroke-width="0" stroke-linejoin="null" stroke-linecap="null" stroke-dasharray="null" stroke="#000000" fill="#ffffff" font-size="27" font-family="Georgia" id="svg_2">of</text>
  <text xml:space="preserve" y="194.948" x="190.424" transform="matrix(1.23511 0 0 1.26829 -36.2717 -44.2763)" text-anchor="middle" stroke-width="0" stroke="#000000" fill="#ffffff" font-size="27" font-family="Georgia" id="svg_5">2012</text>
 </g>
</svg>